<svg xmlns="http://www.w3.org/2000/svg" width="1920" height="1080"><path d="M-111,1354L-296,1360L281,1383Z" fill="#0c2f51" stroke="#0c2f51" stroke-width="1.51"/><path d="M249,-376L1049,-362L1278,-404Z" fill="#133f69" stroke="#133f69" stroke-width="1.51"/><path d="M-57,-400L249,-376L1278,-404Z" fill="#113c64" stroke="#113c64" stroke-width="1.51"/><path d="M281,1383L-296,1360L1399,1473Z" fill="#0e3355" stroke="#0e3355" stroke-width="1.51"/><path d="M626,1356L281,1383L1399,1473Z" fill="#103659" stroke="#103659" stroke-width="1.51"/><path d="M-57,-400L1278,-404L1759,-415Z" fill="#133f69" stroke="#133f69" stroke-width="1.51"/><path d="M-57,-400L1759,-415L1937,-418Z" fill="#123b63" stroke="#123b63" stroke-width="1.51"/><path d="M1966,1418L1616,1475L2126,1468Z" fill="#092642" stroke="#092642" stroke-width="1.51"/><path d="M1898,213L1881,393L2240,471Z" fill="#11375c" stroke="#11375c" stroke-width="1.51"/><path d="M1999,972L1926,1122L2264,1229Z" fill="#0b2b4a" stroke="#0b2b4a" stroke-width="1.51"/><path d="M2131,-261L2214,-14L2275,79Z" fill="#0c2f50" stroke="#0c2f50" stroke-width="1.51"/><path d="M1898,213L2240,471L2275,79Z" fill="#0f3457" stroke="#0f3457" stroke-width="1.51"/><path d="M1999,972L2264,1229L2287,973Z" fill="#0b2b49" stroke="#0b2b49" stroke-width="1.51"/><path d="M2162,738L1999,972L2287,973Z" fill="#0d2f50" stroke="#0d2f50" stroke-width="1.51"/><path d="M2240,471L2162,738L2287,973Z" fill="#0e3153" stroke="#0e3153" stroke-width="1.51"/><path d="M2275,79L2240,471L2287,973Z" fill="#103458" stroke="#103458" stroke-width="1.51"/><path d="M2214,-14L1898,213L2275,79Z" fill="#0e3255" stroke="#0e3255" stroke-width="1.51"/><path d="M1914,679L2162,738L2240,471Z" fill="#10365a" stroke="#10365a" stroke-width="1.51"/><path d="M1966,1418L2126,1468L2264,1229Z" fill="#092540" stroke="#092540" stroke-width="1.51"/><path d="M1926,1122L1966,1418L2264,1229Z" fill="#0a2845" stroke="#0a2845" stroke-width="1.51"/><path d="M1881,393L1914,679L2240,471Z" fill="#12395e" stroke="#12395e" stroke-width="1.51"/><path d="M987,1356L626,1356L1399,1473Z" fill="#10365b" stroke="#10365b" stroke-width="1.51"/><path d="M2131,-261L1904,-174L2214,-14Z" fill="#0d3052" stroke="#0d3052" stroke-width="1.51"/><path d="M1904,-174L1898,213L2214,-14Z" fill="#0e3356" stroke="#0e3356" stroke-width="1.51"/><path d="M1914,679L1999,972L2162,738Z" fill="#0f3356" stroke="#0f3356" stroke-width="1.51"/><path d="M1937,-418L1904,-174L2131,-261Z" fill="#0c3052" stroke="#0c3052" stroke-width="1.51"/><path d="M1644,188L1898,213L1904,-174Z" fill="#10375c" stroke="#10375c" stroke-width="1.51"/><path d="M1881,393L1760,613L1914,679Z" fill="#133b62" stroke="#133b62" stroke-width="1.51"/><path d="M1926,1122L1646,1171L1966,1418Z" fill="#0b2c4b" stroke="#0b2c4b" stroke-width="1.51"/><path d="M1709,974L1926,1122L1999,972Z" fill="#0e3052" stroke="#0e3052" stroke-width="1.51"/><path d="M1914,679L1709,974L1999,972Z" fill="#0f3357" stroke="#0f3357" stroke-width="1.51"/><path d="M1619,-172L1644,188L1904,-174Z" fill="#10375c" stroke="#10375c" stroke-width="1.51"/><path d="M1759,-415L1904,-174L1937,-418Z" fill="#0e3254" stroke="#0e3254" stroke-width="1.51"/><path d="M1646,1171L1616,1475L1966,1418Z" fill="#0b2b4a" stroke="#0b2b4a" stroke-width="1.51"/><path d="M1760,613L1709,974L1914,679Z" fill="#11385d" stroke="#11385d" stroke-width="1.51"/><path d="M1711,338L1881,393L1898,213Z" fill="#123a60" stroke="#123a60" stroke-width="1.51"/><path d="M1709,974L1646,1171L1926,1122Z" fill="#0e3152" stroke="#0e3152" stroke-width="1.51"/><path d="M1759,-415L1619,-172L1904,-174Z" fill="#0f3458" stroke="#0f3458" stroke-width="1.51"/><path d="M1711,338L1760,613L1881,393Z" fill="#133c63" stroke="#133c63" stroke-width="1.51"/><path d="M1644,188L1711,338L1898,213Z" fill="#123a61" stroke="#123a61" stroke-width="1.51"/><path d="M1619,-172L1497,-112L1644,188Z" fill="#113a60" stroke="#113a60" stroke-width="1.51"/><path d="M1382,-292L1619,-172L1759,-415Z" fill="#10375c" stroke="#10375c" stroke-width="1.51"/><path d="M1278,-404L1382,-292L1759,-415Z" fill="#10375d" stroke="#10375d" stroke-width="1.51"/><path d="M1473,743L1709,974L1760,613Z" fill="#123a60" stroke="#123a60" stroke-width="1.51"/><path d="M1711,338L1466,505L1760,613Z" fill="#143f67" stroke="#143f67" stroke-width="1.51"/><path d="M1466,505L1473,743L1760,613Z" fill="#143e67" stroke="#143e67" stroke-width="1.51"/><path d="M1429,1180L1616,1475L1646,1171Z" fill="#0e2f51" stroke="#0e2f51" stroke-width="1.51"/><path d="M1422,954L1646,1171L1709,974Z" fill="#0f3558" stroke="#0f3558" stroke-width="1.51"/><path d="M1473,743L1422,954L1709,974Z" fill="#12395e" stroke="#12395e" stroke-width="1.51"/><path d="M1644,188L1466,505L1711,338Z" fill="#133d66" stroke="#133d66" stroke-width="1.51"/><path d="M1429,1180L1399,1473L1616,1475Z" fill="#0d2f4f" stroke="#0d2f4f" stroke-width="1.51"/><path d="M1497,-112L1370,206L1644,188Z" fill="#133c64" stroke="#133c64" stroke-width="1.51"/><path d="M1370,206L1466,505L1644,188Z" fill="#143f68" stroke="#143f68" stroke-width="1.51"/><path d="M1422,954L1429,1180L1646,1171Z" fill="#103558" stroke="#103558" stroke-width="1.51"/><path d="M1382,-292L1497,-112L1619,-172Z" fill="#11395f" stroke="#11395f" stroke-width="1.51"/><path d="M249,-376L551,-287L1049,-362Z" fill="#133e66" stroke="#133e66" stroke-width="1.51"/><path d="M1293,213L1190,410L1370,206Z" fill="#16426d" stroke="#16426d" stroke-width="1.51"/><path d="M1128,-104L1293,213L1370,206Z" fill="#15416a" stroke="#15416a" stroke-width="1.51"/><path d="M1156,1339L1399,1473L1429,1180Z" fill="#0e3255" stroke="#0e3255" stroke-width="1.51"/><path d="M1370,206L1190,410L1466,505Z" fill="#16426d" stroke="#16426d" stroke-width="1.51"/><path d="M1466,505L1246,753L1473,743Z" fill="#15406a" stroke="#15406a" stroke-width="1.51"/><path d="M1246,753L1422,954L1473,743Z" fill="#143d65" stroke="#143d65" stroke-width="1.51"/><path d="M1382,-292L1128,-104L1497,-112Z" fill="#133c64" stroke="#133c64" stroke-width="1.51"/><path d="M1128,-104L1370,206L1497,-112Z" fill="#143e67" stroke="#143e67" stroke-width="1.51"/><path d="M1156,1339L987,1356L1399,1473Z" fill="#0f3356" stroke="#0f3356" stroke-width="1.51"/><path d="M1190,410L1246,753L1466,505Z" fill="#174470" stroke="#174470" stroke-width="1.51"/><path d="M1177,1192L1156,1339L1429,1180Z" fill="#10365a" stroke="#10365a" stroke-width="1.51"/><path d="M1422,954L1177,1192L1429,1180Z" fill="#11375c" stroke="#11375c" stroke-width="1.51"/><path d="M1246,753L1186,830L1422,954Z" fill="#143e66" stroke="#143e66" stroke-width="1.51"/><path d="M1186,830L1177,1192L1422,954Z" fill="#123b62" stroke="#123b62" stroke-width="1.51"/><path d="M1278,-404L1128,-104L1382,-292Z" fill="#123c64" stroke="#123c64" stroke-width="1.51"/><path d="M551,-287L681,-265L1049,-362Z" fill="#133f69" stroke="#133f69" stroke-width="1.51"/><path d="M997,848L1177,1192L1186,830Z" fill="#143e67" stroke="#143e67" stroke-width="1.51"/><path d="M1190,410L929,739L1246,753Z" fill="#184673" stroke="#184673" stroke-width="1.51"/><path d="M1049,-362L1128,-104L1278,-404Z" fill="#133e67" stroke="#133e67" stroke-width="1.51"/><path d="M1034,164L1190,410L1293,213Z" fill="#17446f" stroke="#17446f" stroke-width="1.51"/><path d="M1128,-104L1034,164L1293,213Z" fill="#16426d" stroke="#16426d" stroke-width="1.51"/><path d="M929,739L1186,830L1246,753Z" fill="#16426d" stroke="#16426d" stroke-width="1.51"/><path d="M1049,-362L1023,-131L1128,-104Z" fill="#14406a" stroke="#14406a" stroke-width="1.51"/><path d="M997,848L868,1229L1177,1192Z" fill="#133d65" stroke="#133d65" stroke-width="1.51"/><path d="M987,1356L1156,1339L1177,1192Z" fill="#11375c" stroke="#11375c" stroke-width="1.51"/><path d="M929,739L997,848L1186,830Z" fill="#16436e" stroke="#16436e" stroke-width="1.51"/><path d="M926,336L929,739L1190,410Z" fill="#194977" stroke="#194977" stroke-width="1.51"/><path d="M1034,164L926,336L1190,410Z" fill="#184673" stroke="#184673" stroke-width="1.51"/><path d="M1023,-131L1034,164L1128,-104Z" fill="#15426e" stroke="#15426e" stroke-width="1.51"/><path d="M868,1229L987,1356L1177,1192Z" fill="#12395f" stroke="#12395f" stroke-width="1.51"/><path d="M926,336L801,388L929,739Z" fill="#194a78" stroke="#194a78" stroke-width="1.51"/><path d="M791,844L687,1107L868,1229Z" fill="#133d65" stroke="#133d65" stroke-width="1.51"/><path d="M791,844L868,1229L997,848Z" fill="#154069" stroke="#154069" stroke-width="1.51"/><path d="M1023,-131L784,-11L1034,164Z" fill="#164571" stroke="#164571" stroke-width="1.51"/><path d="M784,-11L799,135L1034,164Z" fill="#164571" stroke="#164571" stroke-width="1.51"/><path d="M681,-265L1023,-131L1049,-362Z" fill="#15416c" stroke="#15416c" stroke-width="1.51"/><path d="M420,1345L281,1383L626,1356Z" fill="#0f3457" stroke="#0f3457" stroke-width="1.51"/><path d="M799,135L926,336L1034,164Z" fill="#184674" stroke="#184674" stroke-width="1.51"/><path d="M681,-265L784,-11L1023,-131Z" fill="#15426d" stroke="#15426d" stroke-width="1.51"/><path d="M801,388L710,736L929,739Z" fill="#194775" stroke="#194775" stroke-width="1.51"/><path d="M929,739L791,844L997,848Z" fill="#164470" stroke="#164470" stroke-width="1.51"/><path d="M868,1229L626,1356L987,1356Z" fill="#11385d" stroke="#11385d" stroke-width="1.51"/><path d="M799,135L801,388L926,336Z" fill="#184774" stroke="#184774" stroke-width="1.51"/><path d="M710,736L791,844L929,739Z" fill="#17446f" stroke="#17446f" stroke-width="1.51"/><path d="M503,648L710,736L801,388Z" fill="#184774" stroke="#184774" stroke-width="1.51"/><path d="M687,1107L626,1356L868,1229Z" fill="#11395f" stroke="#11395f" stroke-width="1.51"/><path d="M372,864L687,1107L710,736Z" fill="#143f68" stroke="#143f68" stroke-width="1.51"/><path d="M710,736L687,1107L791,844Z" fill="#15406a" stroke="#15406a" stroke-width="1.51"/><path d="M784,-11L552,118L799,135Z" fill="#16436f" stroke="#16436f" stroke-width="1.51"/><path d="M799,135L552,118L801,388Z" fill="#174571" stroke="#174571" stroke-width="1.51"/><path d="M552,118L372,450L801,388Z" fill="#174571" stroke="#174571" stroke-width="1.51"/><path d="M372,450L503,648L801,388Z" fill="#174774" stroke="#174774" stroke-width="1.51"/><path d="M681,-265L433,-19L784,-11Z" fill="#14406b" stroke="#14406b" stroke-width="1.51"/><path d="M433,-19L552,118L784,-11Z" fill="#14426c" stroke="#14426c" stroke-width="1.51"/><path d="M551,-287L433,-19L681,-265Z" fill="#133f68" stroke="#133f68" stroke-width="1.51"/><path d="M372,864L518,1183L687,1107Z" fill="#123b62" stroke="#123b62" stroke-width="1.51"/><path d="M518,1183L626,1356L687,1107Z" fill="#11385e" stroke="#11385e" stroke-width="1.51"/><path d="M503,648L372,864L710,736Z" fill="#15426d" stroke="#15426d" stroke-width="1.51"/><path d="M294,255L372,450L552,118Z" fill="#16436e" stroke="#16436e" stroke-width="1.51"/><path d="M518,1183L420,1345L626,1356Z" fill="#10365a" stroke="#10365a" stroke-width="1.51"/><path d="M372,864L172,1122L518,1183Z" fill="#113a60" stroke="#113a60" stroke-width="1.51"/><path d="M249,-376L433,-19L551,-287Z" fill="#123d66" stroke="#123d66" stroke-width="1.51"/><path d="M433,-19L294,255L552,118Z" fill="#15416c" stroke="#15416c" stroke-width="1.51"/><path d="M297,750L372,864L503,648Z" fill="#15416b" stroke="#15416b" stroke-width="1.51"/><path d="M172,1122L420,1345L518,1183Z" fill="#10365b" stroke="#10365b" stroke-width="1.51"/><path d="M249,-376L121,-113L433,-19Z" fill="#123d65" stroke="#123d65" stroke-width="1.51"/><path d="M372,450L297,750L503,648Z" fill="#164470" stroke="#164470" stroke-width="1.51"/><path d="M214,500L297,750L372,450Z" fill="#164570" stroke="#164570" stroke-width="1.51"/><path d="M172,1122L281,1383L420,1345Z" fill="#0f3458" stroke="#0f3458" stroke-width="1.51"/><path d="M121,-113L294,255L433,-19Z" fill="#143f69" stroke="#143f69" stroke-width="1.51"/><path d="M150,876L172,1122L372,864Z" fill="#123b62" stroke="#123b62" stroke-width="1.51"/><path d="M121,-113L19,-56L294,255Z" fill="#133e67" stroke="#133e67" stroke-width="1.51"/><path d="M297,750L150,876L372,864Z" fill="#143e67" stroke="#143e67" stroke-width="1.51"/><path d="M294,255L214,500L372,450Z" fill="#16446f" stroke="#16446f" stroke-width="1.51"/><path d="M172,1122L-66,1218L281,1383Z" fill="#0e3457" stroke="#0e3457" stroke-width="1.51"/><path d="M19,-56L-68,84L294,255Z" fill="#133e67" stroke="#133e67" stroke-width="1.51"/><path d="M24,445L214,500L294,255Z" fill="#15436d" stroke="#15436d" stroke-width="1.51"/><path d="M214,500L-82,649L297,750Z" fill="#15426c" stroke="#15426c" stroke-width="1.51"/><path d="M-82,649L150,876L297,750Z" fill="#143f67" stroke="#143f67" stroke-width="1.51"/><path d="M-68,84L24,445L294,255Z" fill="#14406a" stroke="#14406a" stroke-width="1.51"/><path d="M-66,1218L-111,1354L281,1383Z" fill="#0d3153" stroke="#0d3153" stroke-width="1.51"/><path d="M24,445L-82,649L214,500Z" fill="#15436e" stroke="#15436e" stroke-width="1.51"/><path d="M-57,-400L121,-113L249,-376Z" fill="#103a61" stroke="#103a61" stroke-width="1.51"/><path d="M150,876L-18,946L172,1122Z" fill="#123960" stroke="#123960" stroke-width="1.51"/><path d="M-82,649L-18,946L150,876Z" fill="#133c64" stroke="#133c64" stroke-width="1.51"/><path d="M-18,946L-66,1218L172,1122Z" fill="#10365b" stroke="#10365b" stroke-width="1.51"/><path d="M-57,-400L19,-56L121,-113Z" fill="#113a62" stroke="#113a62" stroke-width="1.51"/><path d="M-57,-400L-206,-283L19,-56Z" fill="#10395f" stroke="#10395f" stroke-width="1.51"/><path d="M-82,649L-318,898L-18,946Z" fill="#123a62" stroke="#123a62" stroke-width="1.51"/><path d="M-203,1096L-66,1218L-18,946Z" fill="#0f355a" stroke="#0f355a" stroke-width="1.51"/><path d="M-206,-283L-315,-141L19,-56Z" fill="#103960" stroke="#103960" stroke-width="1.51"/><path d="M-263,597L-82,649L24,445Z" fill="#14416b" stroke="#14416b" stroke-width="1.51"/><path d="M-308,366L-263,597L24,445Z" fill="#14406b" stroke="#14406b" stroke-width="1.51"/><path d="M-68,84L-310,249L24,445Z" fill="#133e67" stroke="#133e67" stroke-width="1.51"/><path d="M-310,249L-308,366L24,445Z" fill="#133f68" stroke="#133f68" stroke-width="1.51"/><path d="M-315,-141L-68,84L19,-56Z" fill="#113b62" stroke="#113b62" stroke-width="1.51"/><path d="M-318,898L-203,1096L-18,946Z" fill="#10375c" stroke="#10375c" stroke-width="1.51"/><path d="M-263,597L-318,898L-82,649Z" fill="#123d65" stroke="#123d65" stroke-width="1.51"/><path d="M-315,-141L-310,249L-68,84Z" fill="#113b63" stroke="#113b63" stroke-width="1.51"/><path d="M-296,1360L-111,1354L-66,1218Z" fill="#0d3051" stroke="#0d3051" stroke-width="1.51"/><path d="M-203,1096L-296,1360L-66,1218Z" fill="#0e3153" stroke="#0e3153" stroke-width="1.51"/><path d="M-318,898L-296,1360L-203,1096Z" fill="#0e3356" stroke="#0e3356" stroke-width="1.51"/><path d="M-308,366L-318,898L-263,597Z" fill="#133e67" stroke="#133e67" stroke-width="1.51"/><path d="M-310,249L-318,898L-308,366Z" fill="#144069" stroke="#144069" stroke-width="1.51"/><path d="M-315,-141L-318,898L-310,249Z" fill="#123e66" stroke="#123e66" stroke-width="1.51"/></svg>