<?xml version="1.0" standalone="no"?>
<!DOCTYPE svg PUBLIC "-//W3C//DTD SVG 20010904//EN"
 "http://www.w3.org/TR/2001/REC-SVG-20010904/DTD/svg10.dtd">
<svg version="1.0" xmlns="http://www.w3.org/2000/svg"
 width="512.000000pt" height="512.000000pt" viewBox="0 0 512.000000 512.000000"
 preserveAspectRatio="xMidYMid meet">
<metadata>
Created by potrace 1.11, written by Peter Selinger 2001-2013
</metadata>
<g transform="translate(0.000000,512.000000) scale(0.100000,-0.100000)"
fill="#000000" stroke="none">
<path d="M0 2560 l0 -2560 2560 0 2560 0 0 2560 0 2560 -2560 0 -2560 0 0
-2560z m3165 425 c4 -64 4 -248 0 -410 l-7 -295 -64 0 -64 0 0 410 0 410 64 0
64 0 7 -115z m269 86 c30 -26 38 -58 22 -95 -28 -67 -124 -67 -152 -1 -35 85
60 156 130 96z m454 13 c20 -6 23 -12 20 -47 -3 -40 -3 -41 -58 -53 -67 -15
-90 -40 -90 -100 l0 -43 73 -3 72 -3 0 -45 0 -45 -72 -3 -73 -3 0 -229 0 -230
-65 0 -65 0 0 229 0 229 -42 14 c-40 12 -43 16 -46 51 l-3 37 44 0 45 0 4 64
c6 92 50 150 136 176 33 10 89 12 120 4z m-2836 -255 c16 -12 38 -35 47 -50
l18 -29 22 30 c32 44 90 70 156 70 69 0 113 -18 148 -59 41 -49 47 -90 47
-308 l0 -203 -70 0 -70 0 0 204 c0 200 -1 206 -23 232 -18 21 -32 27 -65 27
-88 0 -102 -38 -102 -278 l0 -185 -70 0 -70 0 0 206 c0 117 -4 213 -10 224
-25 46 -107 45 -157 -2 -22 -21 -23 -27 -23 -225 l0 -203 -65 0 -65 0 0 280 0
280 48 0 c52 0 72 -12 72 -44 0 -19 0 -19 23 1 61 56 154 70 209 32z m898 11
c20 -5 51 -23 70 -38 34 -29 34 -29 17 -56 -26 -39 -42 -42 -97 -16 -84 40
-162 13 -196 -67 -21 -48 -17 -159 5 -210 35 -76 125 -96 209 -47 l46 27 29
-33 29 -32 -28 -29 c-40 -42 -106 -64 -189 -64 -114 1 -196 57 -236 164 -31
83 -24 206 16 280 49 89 121 130 230 131 33 0 76 -5 95 -10z m545 -7 c102 -34
166 -137 166 -266 0 -108 -24 -170 -89 -229 -51 -46 -100 -62 -187 -62 -180 0
-284 120 -273 313 7 118 54 191 153 237 61 29 158 32 230 7z m1789 6 c54 -15
121 -80 140 -136 23 -67 21 -139 -3 -153 -12 -6 -92 -10 -191 -10 l-170 0 6
-27 c12 -53 38 -96 68 -114 38 -23 113 -25 164 -3 83 35 80 35 107 6 14 -15
25 -33 25 -40 0 -24 -89 -70 -161 -83 -130 -23 -244 26 -303 130 -40 72 -49
192 -20 272 23 64 88 132 146 152 51 18 138 21 192 6z m-834 -279 l0 -280 -70
0 -70 0 0 280 0 280 70 0 70 0 0 -280z m-581 -135 c31 -16 41 -33 41 -71 0
-59 -56 -96 -110 -74 -67 28 -69 113 -5 148 27 15 41 15 74 -3z"/>
<path d="M2323 2734 c-45 -22 -73 -84 -73 -161 0 -85 8 -116 39 -154 24 -29
35 -33 87 -37 50 -3 63 -1 88 19 41 32 56 77 56 164 0 57 -5 86 -21 116 -32
64 -108 86 -176 53z"/>
<path d="M4185 2755 c-5 -2 -22 -6 -37 -9 -29 -7 -63 -47 -73 -89 l-7 -27 126
0 c80 0 126 4 126 10 0 25 -30 80 -52 93 -25 16 -67 27 -83 22z"/>
</g>
</svg>
