<?xml version="1.0" standalone="no"?>
<!DOCTYPE svg PUBLIC "-//W3C//DTD SVG 20010904//EN"
 "http://www.w3.org/TR/2001/REC-SVG-20010904/DTD/svg10.dtd">
<svg version="1.0" xmlns="http://www.w3.org/2000/svg"
 width="512.000000pt" height="512.000000pt" viewBox="0 0 512.000000 512.000000"
 preserveAspectRatio="xMidYMid meet">
<metadata>
Created by potrace 1.11, written by Peter Selinger 2001-2013
</metadata>
<g transform="translate(0.000000,512.000000) scale(0.100000,-0.100000)"
fill="#000000" stroke="none">
<path d="M2380 5054 c-19 -2 -78 -9 -130 -15 -210 -24 -448 -87 -657 -175
-684 -286 -1211 -871 -1426 -1584 -74 -245 -102 -439 -102 -720 0 -281 28
-475 102 -720 242 -802 871 -1431 1673 -1673 245 -74 439 -102 720 -102 281 0
475 28 720 102 802 242 1431 871 1673 1673 74 245 102 439 102 720 0 119 -6
255 -13 305 -58 413 -186 754 -407 1085 -402 601 -1022 986 -1755 1090 -78 11
-439 21 -500 14z m780 -2384 l0 -410 -65 0 -65 0 0 410 0 410 65 0 65 0 0
-410z m280 375 c59 -63 -8 -162 -91 -133 -58 20 -71 108 -22 146 29 21 87 15
113 -13z m448 19 c20 -6 23 -12 20 -47 -3 -40 -3 -41 -58 -53 -67 -15 -90 -40
-90 -100 l0 -44 69 0 68 0 6 -42 c3 -23 3 -46 1 -50 -3 -4 -36 -8 -75 -8 l-69
0 0 -230 0 -230 -65 0 -65 0 0 229 0 229 -42 14 c-40 12 -43 16 -46 51 l-3 37
45 0 46 0 0 43 c0 65 17 110 54 146 52 50 136 73 204 55z m-2826 -264 c20 -17
40 -40 43 -51 7 -20 9 -19 36 14 60 72 199 90 272 34 65 -50 72 -76 75 -319
l3 -218 -70 0 -71 0 0 204 c0 202 0 205 -24 233 -19 22 -32 28 -65 27 -88 -3
-101 -40 -101 -279 l0 -185 -64 0 -64 0 -4 203 c-2 133 -8 209 -16 224 -27 49
-107 49 -159 1 -22 -21 -23 -27 -23 -225 l0 -203 -65 0 -65 0 0 280 0 280 48
0 c52 0 72 -12 72 -44 0 -19 0 -19 23 1 38 36 80 52 132 53 42 0 57 -5 87 -30z
m889 19 c21 -7 53 -24 71 -39 32 -27 32 -27 15 -54 -26 -38 -40 -41 -92 -16
-84 41 -167 13 -201 -67 -19 -44 -18 -153 2 -203 9 -22 29 -49 44 -60 38 -27
114 -27 158 0 44 27 66 25 92 -7 l22 -28 -38 -33 c-47 -40 -101 -57 -184 -56
-160 2 -259 126 -248 314 7 123 64 208 164 244 48 18 144 20 195 5z m542 -5
c64 -22 131 -89 152 -155 24 -70 17 -208 -12 -265 -27 -52 -89 -108 -139 -125
-105 -37 -254 -3 -318 72 -82 96 -89 275 -15 383 62 92 210 132 332 90z m1790
5 c88 -24 161 -133 155 -232 l-3 -52 -185 -5 -185 -5 3 -30 c5 -48 33 -96 66
-116 38 -23 113 -25 164 -3 83 35 80 35 107 6 14 -15 25 -33 25 -40 0 -23 -89
-70 -158 -82 -132 -24 -247 25 -306 129 -26 47 -31 68 -34 143 -4 84 -3 92 27
153 33 66 80 109 146 133 39 14 130 15 178 1z m-833 -279 l0 -280 -70 0 -70 0
0 280 0 280 70 0 70 0 0 -280z m-589 -130 c20 0 49 -42 49 -71 0 -42 -15 -65
-50 -77 -36 -13 -86 1 -100 28 -14 26 -12 72 4 92 15 21 56 38 74 32 8 -2 18
-4 23 -4z"/>
<path d="M2321 2713 c-48 -24 -71 -79 -71 -171 0 -127 41 -182 135 -182 95 0
135 55 135 187 0 93 -20 139 -71 165 -42 22 -84 22 -128 1z"/>
<path d="M4185 2735 c-5 -2 -22 -6 -37 -9 -29 -7 -63 -47 -73 -89 l-7 -27 126
0 c80 0 126 4 126 10 0 25 -30 80 -52 93 -25 16 -67 27 -83 22z"/>
</g>
</svg>
